# xmcd
#
# Track frame offsets: 
#        225
#        13350
#        28650
#        38875
#        50647
#        59112
#        68147
#        80162
#        89055
#        100380
#
# Disc length: 1454 seconds
#
# Revision: 2
# Processed by: cddbd v1.5.2PL0 Copyright (c) Steve Scherf et al.
# Submitted via: ExactAudioCopy v0.99pb5
#
DISCID=9705ab0a
DTITLE=BOXCAR WILLIE - BOXCAR BLUES
DYEAR=2000
DGENRE=
TTITLE0=Bad News
TTITLE1=Boxcar Blues
TTITLE2=Bummin' Around
TTITLE3=Country Music Nightmare
TTITLE4=Daddy Was A Railroad Man
TTITLE5=Divorce Me C O D
TTITLE6=Don't Blame Me For What Happened Last Night
TTITLE7=Don't Let The Stars Get In Your Eyes
TTITLE8=Freight Train Blues
TTITLE9=Hank And The Hobo
EXTD=
EXTT0=
EXTT1=
EXTT2=
EXTT3=
EXTT4=
EXTT5=
EXTT6=
EXTT7=
EXTT8=
EXTT9=
PLAYORDER=
